<mxfile host="app.diagrams.net" agent="Mozilla/5.0 (Windows NT 10.0; Win64; x64) AppleWebKit/537.36 (KHTML, like Gecko) Chrome/131.0.0.0 Safari/537.36 OPR/116.0.0.0" version="26.1.0">
  <diagram name="PÃ¡gina-1" id="ZHK2XRkGika-7EGYyk7G">
    <mxGraphModel dx="1418" dy="2638" grid="0" gridSize="10" guides="1" tooltips="1" connect="1" arrows="1" fold="1" page="0" pageScale="1" pageWidth="827" pageHeight="1169" math="0" shadow="0">
      <root>
        <mxCell id="0" />
        <mxCell id="1" parent="0" />
        <mxCell id="qvuT-UmIOO9ZiqUMAsfs-48" value="" style="whiteSpace=wrap;html=1;aspect=fixed;" vertex="1" parent="1">
          <mxGeometry x="-12" y="771" width="80" height="80" as="geometry" />
        </mxCell>
        <mxCell id="qvuT-UmIOO9ZiqUMAsfs-49" value="" style="whiteSpace=wrap;html=1;aspect=fixed;" vertex="1" parent="1">
          <mxGeometry x="-0.5" y="782.5" width="57" height="57" as="geometry" />
        </mxCell>
        <mxCell id="qvuT-UmIOO9ZiqUMAsfs-51" value="" style="rounded=0;whiteSpace=wrap;html=1;" vertex="1" parent="1">
          <mxGeometry x="-30" y="851" width="120" height="25" as="geometry" />
        </mxCell>
        <mxCell id="qvuT-UmIOO9ZiqUMAsfs-52" value="PC A" style="text;html=1;align=center;verticalAlign=middle;resizable=0;points=[];autosize=1;strokeColor=none;fillColor=none;fontSize=16;" vertex="1" parent="1">
          <mxGeometry x="-118.5" y="774.5" width="54" height="31" as="geometry" />
        </mxCell>
        <mxCell id="qvuT-UmIOO9ZiqUMAsfs-54" value="" style="rounded=0;whiteSpace=wrap;html=1;rotation=90;" vertex="1" parent="1">
          <mxGeometry x="-32" y="560" width="120" height="60" as="geometry" />
        </mxCell>
        <mxCell id="qvuT-UmIOO9ZiqUMAsfs-55" value="dnsp_local" style="text;html=1;align=center;verticalAlign=middle;resizable=0;points=[];autosize=1;strokeColor=none;fillColor=none;fontSize=16;" vertex="1" parent="1">
          <mxGeometry x="-125" y="574.5" width="95" height="31" as="geometry" />
        </mxCell>
        <mxCell id="qvuT-UmIOO9ZiqUMAsfs-56" value="" style="shape=flexArrow;endArrow=classic;html=1;rounded=0;fontSize=12;startSize=8;endSize=8;curved=1;" edge="1" parent="1">
          <mxGeometry width="50" height="50" relative="1" as="geometry">
            <mxPoint x="14" y="754" as="sourcePoint" />
            <mxPoint x="10" y="662" as="targetPoint" />
          </mxGeometry>
        </mxCell>
        <mxCell id="qvuT-UmIOO9ZiqUMAsfs-58" value="" style="rounded=0;whiteSpace=wrap;html=1;rotation=90;" vertex="1" parent="1">
          <mxGeometry x="-5" y="558" width="66" height="40" as="geometry" />
        </mxCell>
        <mxCell id="qvuT-UmIOO9ZiqUMAsfs-59" value="" style="rounded=0;whiteSpace=wrap;html=1;rotation=90;" vertex="1" parent="1">
          <mxGeometry x="27" y="309" width="120" height="60" as="geometry" />
        </mxCell>
        <mxCell id="qvuT-UmIOO9ZiqUMAsfs-60" value="" style="rounded=0;whiteSpace=wrap;html=1;rotation=90;" vertex="1" parent="1">
          <mxGeometry x="54" y="307" width="66" height="40" as="geometry" />
        </mxCell>
        <mxCell id="qvuT-UmIOO9ZiqUMAsfs-62" value="" style="shape=waypoint;sketch=0;size=6;pointerEvents=1;points=[];fillColor=none;resizable=0;rotatable=0;perimeter=centerPerimeter;snapToPoint=1;" vertex="1" parent="1">
          <mxGeometry x="37" y="252" width="20" height="20" as="geometry" />
        </mxCell>
        <mxCell id="qvuT-UmIOO9ZiqUMAsfs-70" value="" style="rounded=0;whiteSpace=wrap;html=1;rotation=90;" vertex="1" parent="1">
          <mxGeometry x="314" y="346.75" width="120" height="60" as="geometry" />
        </mxCell>
        <mxCell id="qvuT-UmIOO9ZiqUMAsfs-71" value="" style="rounded=0;whiteSpace=wrap;html=1;rotation=90;" vertex="1" parent="1">
          <mxGeometry x="341" y="344.75" width="66" height="40" as="geometry" />
        </mxCell>
        <mxCell id="qvuT-UmIOO9ZiqUMAsfs-72" value="" style="rounded=0;whiteSpace=wrap;html=1;rotation=90;" vertex="1" parent="1">
          <mxGeometry x="427" y="519.5" width="120" height="60" as="geometry" />
        </mxCell>
        <mxCell id="qvuT-UmIOO9ZiqUMAsfs-73" value="" style="rounded=0;whiteSpace=wrap;html=1;rotation=90;" vertex="1" parent="1">
          <mxGeometry x="454" y="517.5" width="66" height="40" as="geometry" />
        </mxCell>
        <mxCell id="qvuT-UmIOO9ZiqUMAsfs-74" value="" style="rounded=0;whiteSpace=wrap;html=1;rotation=90;" vertex="1" parent="1">
          <mxGeometry x="418" y="794" width="120" height="60" as="geometry" />
        </mxCell>
        <mxCell id="qvuT-UmIOO9ZiqUMAsfs-75" value="" style="rounded=0;whiteSpace=wrap;html=1;rotation=90;" vertex="1" parent="1">
          <mxGeometry x="445" y="792" width="66" height="40" as="geometry" />
        </mxCell>
        <mxCell id="qvuT-UmIOO9ZiqUMAsfs-76" style="edgeStyle=none;curved=1;rounded=0;orthogonalLoop=1;jettySize=auto;html=1;exitX=0.75;exitY=0;exitDx=0;exitDy=0;fontSize=12;startSize=8;endSize=8;" edge="1" parent="1" source="qvuT-UmIOO9ZiqUMAsfs-71" target="qvuT-UmIOO9ZiqUMAsfs-71">
          <mxGeometry relative="1" as="geometry" />
        </mxCell>
        <mxCell id="qvuT-UmIOO9ZiqUMAsfs-79" value="no" style="text;html=1;align=center;verticalAlign=middle;resizable=0;points=[];autosize=1;strokeColor=none;fillColor=none;fontSize=16;" vertex="1" parent="1">
          <mxGeometry x="365.5" y="271.25" width="36" height="31" as="geometry" />
        </mxCell>
        <mxCell id="qvuT-UmIOO9ZiqUMAsfs-80" value="norut" style="text;html=1;align=center;verticalAlign=middle;resizable=0;points=[];autosize=1;strokeColor=none;fillColor=none;fontSize=16;" vertex="1" parent="1">
          <mxGeometry x="468.5" y="443" width="54" height="31" as="geometry" />
        </mxCell>
        <mxCell id="qvuT-UmIOO9ZiqUMAsfs-82" value="ht" style="text;html=1;align=center;verticalAlign=middle;resizable=0;points=[];autosize=1;strokeColor=none;fillColor=none;fontSize=16;" vertex="1" parent="1">
          <mxGeometry x="546.5" y="743" width="31" height="31" as="geometry" />
        </mxCell>
        <mxCell id="qvuT-UmIOO9ZiqUMAsfs-84" value="" style="shape=flexArrow;endArrow=classic;html=1;rounded=0;fontSize=12;startSize=8;endSize=8;curved=1;" edge="1" parent="1">
          <mxGeometry width="50" height="50" relative="1" as="geometry">
            <mxPoint x="19" y="512" as="sourcePoint" />
            <mxPoint x="51" y="412" as="targetPoint" />
          </mxGeometry>
        </mxCell>
        <mxCell id="qvuT-UmIOO9ZiqUMAsfs-85" value="" style="shape=flexArrow;endArrow=classic;html=1;rounded=0;fontSize=12;startSize=8;endSize=8;curved=1;" edge="1" parent="1">
          <mxGeometry width="50" height="50" relative="1" as="geometry">
            <mxPoint x="135" y="503.75" as="sourcePoint" />
            <mxPoint x="290" y="406.75" as="targetPoint" />
          </mxGeometry>
        </mxCell>
        <mxCell id="qvuT-UmIOO9ZiqUMAsfs-86" value="" style="shape=flexArrow;endArrow=classic;html=1;rounded=0;fontSize=12;startSize=8;endSize=8;curved=1;" edge="1" parent="1">
          <mxGeometry width="50" height="50" relative="1" as="geometry">
            <mxPoint x="208" y="544" as="sourcePoint" />
            <mxPoint x="425" y="544" as="targetPoint" />
          </mxGeometry>
        </mxCell>
        <mxCell id="qvuT-UmIOO9ZiqUMAsfs-87" value="" style="shape=flexArrow;endArrow=classic;html=1;rounded=0;fontSize=12;startSize=8;endSize=11.12;curved=1;width=12;" edge="1" parent="1">
          <mxGeometry width="50" height="50" relative="1" as="geometry">
            <mxPoint x="181" y="673" as="sourcePoint" />
            <mxPoint x="418" y="785" as="targetPoint" />
          </mxGeometry>
        </mxCell>
        <mxCell id="qvuT-UmIOO9ZiqUMAsfs-91" value="" style="shape=flexArrow;endArrow=classic;html=1;rounded=0;fontSize=12;startSize=8;endSize=11.56;curved=1;width=14;" edge="1" parent="1">
          <mxGeometry width="50" height="50" relative="1" as="geometry">
            <mxPoint x="394" y="813" as="sourcePoint" />
            <mxPoint x="162" y="696" as="targetPoint" />
          </mxGeometry>
        </mxCell>
        <mxCell id="qvuT-UmIOO9ZiqUMAsfs-92" value="" style="shape=flexArrow;endArrow=classic;html=1;rounded=0;fontSize=12;startSize=8;endSize=8;curved=1;" edge="1" parent="1">
          <mxGeometry width="50" height="50" relative="1" as="geometry">
            <mxPoint x="424" y="579.5" as="sourcePoint" />
            <mxPoint x="188" y="582" as="targetPoint" />
          </mxGeometry>
        </mxCell>
        <mxCell id="qvuT-UmIOO9ZiqUMAsfs-93" value="" style="shape=flexArrow;endArrow=classic;html=1;rounded=0;fontSize=12;startSize=8;endSize=8;curved=1;" edge="1" parent="1">
          <mxGeometry width="50" height="50" relative="1" as="geometry">
            <mxPoint x="325" y="423" as="sourcePoint" />
            <mxPoint x="144" y="538" as="targetPoint" />
          </mxGeometry>
        </mxCell>
        <mxCell id="qvuT-UmIOO9ZiqUMAsfs-94" value="" style="shape=flexArrow;endArrow=classic;html=1;rounded=0;fontSize=12;startSize=8;endSize=8;curved=1;" edge="1" parent="1">
          <mxGeometry width="50" height="50" relative="1" as="geometry">
            <mxPoint x="92.5" y="413" as="sourcePoint" />
            <mxPoint x="56.5" y="519" as="targetPoint" />
          </mxGeometry>
        </mxCell>
        <mxCell id="qvuT-UmIOO9ZiqUMAsfs-95" value="" style="shape=flexArrow;endArrow=classic;html=1;rounded=0;fontSize=12;startSize=8;endSize=8;curved=1;" edge="1" parent="1">
          <mxGeometry width="50" height="50" relative="1" as="geometry">
            <mxPoint x="43" y="666" as="sourcePoint" />
            <mxPoint x="43" y="751" as="targetPoint" />
          </mxGeometry>
        </mxCell>
        <mxCell id="qvuT-UmIOO9ZiqUMAsfs-100" value="1" style="text;html=1;align=center;verticalAlign=middle;resizable=0;points=[];autosize=1;strokeColor=none;fillColor=none;fontSize=16;" vertex="1" parent="1">
          <mxGeometry x="-43" y="692" width="27" height="31" as="geometry" />
        </mxCell>
        <mxCell id="qvuT-UmIOO9ZiqUMAsfs-101" value="2" style="text;html=1;align=center;verticalAlign=middle;resizable=0;points=[];autosize=1;strokeColor=none;fillColor=none;fontSize=16;" vertex="1" parent="1">
          <mxGeometry x="-9" y="447" width="27" height="31" as="geometry" />
        </mxCell>
        <mxCell id="qvuT-UmIOO9ZiqUMAsfs-102" value="3" style="text;html=1;align=center;verticalAlign=middle;resizable=0;points=[];autosize=1;strokeColor=none;fillColor=none;fontSize=16;" vertex="1" parent="1">
          <mxGeometry x="98" y="416" width="27" height="31" as="geometry" />
        </mxCell>
        <mxCell id="qvuT-UmIOO9ZiqUMAsfs-103" value="4" style="text;html=1;align=center;verticalAlign=middle;resizable=0;points=[];autosize=1;strokeColor=none;fillColor=none;fontSize=16;" vertex="1" parent="1">
          <mxGeometry x="181" y="412" width="27" height="31" as="geometry" />
        </mxCell>
        <mxCell id="qvuT-UmIOO9ZiqUMAsfs-104" value="5" style="text;html=1;align=center;verticalAlign=middle;resizable=0;points=[];autosize=1;strokeColor=none;fillColor=none;fontSize=16;" vertex="1" parent="1">
          <mxGeometry x="291" y="447" width="27" height="31" as="geometry" />
        </mxCell>
        <mxCell id="qvuT-UmIOO9ZiqUMAsfs-106" value="6" style="text;html=1;align=center;verticalAlign=middle;resizable=0;points=[];autosize=1;strokeColor=none;fillColor=none;fontSize=16;" vertex="1" parent="1">
          <mxGeometry x="349" y="500" width="27" height="31" as="geometry" />
        </mxCell>
        <mxCell id="qvuT-UmIOO9ZiqUMAsfs-108" value="8" style="text;html=1;align=center;verticalAlign=middle;resizable=0;points=[];autosize=1;strokeColor=none;fillColor=none;fontSize=16;" vertex="1" parent="1">
          <mxGeometry x="352" y="712" width="27" height="31" as="geometry" />
        </mxCell>
        <mxCell id="qvuT-UmIOO9ZiqUMAsfs-109" value="9" style="text;html=1;align=center;verticalAlign=middle;resizable=0;points=[];autosize=1;strokeColor=none;fillColor=none;fontSize=16;" vertex="1" parent="1">
          <mxGeometry x="322" y="811" width="27" height="31" as="geometry" />
        </mxCell>
        <mxCell id="qvuT-UmIOO9ZiqUMAsfs-110" value="10" style="text;html=1;align=center;verticalAlign=middle;resizable=0;points=[];autosize=1;strokeColor=none;fillColor=none;fontSize=16;" vertex="1" parent="1">
          <mxGeometry x="72" y="681" width="36" height="31" as="geometry" />
        </mxCell>
        <mxCell id="qvuT-UmIOO9ZiqUMAsfs-112" value="7" style="text;html=1;align=center;verticalAlign=middle;resizable=0;points=[];autosize=1;strokeColor=none;fillColor=none;fontSize=16;" vertex="1" parent="1">
          <mxGeometry x="354" y="596" width="27" height="31" as="geometry" />
        </mxCell>
        <mxCell id="qvuT-UmIOO9ZiqUMAsfs-154" style="edgeStyle=none;curved=1;rounded=0;orthogonalLoop=1;jettySize=auto;html=1;exitX=0.5;exitY=1;exitDx=0;exitDy=0;entryX=0.5;entryY=0;entryDx=0;entryDy=0;fontSize=12;startSize=8;endSize=8;" edge="1" parent="1" source="qvuT-UmIOO9ZiqUMAsfs-113" target="qvuT-UmIOO9ZiqUMAsfs-116">
          <mxGeometry relative="1" as="geometry" />
        </mxCell>
        <mxCell id="qvuT-UmIOO9ZiqUMAsfs-155" style="edgeStyle=none;curved=1;rounded=0;orthogonalLoop=1;jettySize=auto;html=1;exitX=0;exitY=1;exitDx=0;exitDy=0;fontSize=12;startSize=8;endSize=8;" edge="1" parent="1" source="qvuT-UmIOO9ZiqUMAsfs-113" target="qvuT-UmIOO9ZiqUMAsfs-115">
          <mxGeometry relative="1" as="geometry" />
        </mxCell>
        <mxCell id="qvuT-UmIOO9ZiqUMAsfs-156" style="edgeStyle=none;curved=1;rounded=0;orthogonalLoop=1;jettySize=auto;html=1;exitX=1;exitY=1;exitDx=0;exitDy=0;entryX=0.5;entryY=0;entryDx=0;entryDy=0;fontSize=12;startSize=8;endSize=8;" edge="1" parent="1" source="qvuT-UmIOO9ZiqUMAsfs-113" target="qvuT-UmIOO9ZiqUMAsfs-117">
          <mxGeometry relative="1" as="geometry" />
        </mxCell>
        <mxCell id="qvuT-UmIOO9ZiqUMAsfs-113" value="" style="ellipse;whiteSpace=wrap;html=1;aspect=fixed;" vertex="1" parent="1">
          <mxGeometry x="929" y="-1049" width="80" height="80" as="geometry" />
        </mxCell>
        <mxCell id="qvuT-UmIOO9ZiqUMAsfs-114" value="" style="ellipse;whiteSpace=wrap;html=1;aspect=fixed;" vertex="1" parent="1">
          <mxGeometry x="959" y="-1019" width="20" height="20" as="geometry" />
        </mxCell>
        <mxCell id="qvuT-UmIOO9ZiqUMAsfs-123" style="edgeStyle=none;curved=1;rounded=0;orthogonalLoop=1;jettySize=auto;html=1;exitX=0;exitY=1;exitDx=0;exitDy=0;fontSize=12;startSize=8;endSize=8;" edge="1" parent="1" source="qvuT-UmIOO9ZiqUMAsfs-115" target="qvuT-UmIOO9ZiqUMAsfs-121">
          <mxGeometry relative="1" as="geometry" />
        </mxCell>
        <mxCell id="qvuT-UmIOO9ZiqUMAsfs-134" style="edgeStyle=none;curved=1;rounded=0;orthogonalLoop=1;jettySize=auto;html=1;exitX=1;exitY=1;exitDx=0;exitDy=0;entryX=0.5;entryY=0;entryDx=0;entryDy=0;fontSize=12;startSize=8;endSize=8;" edge="1" parent="1" source="qvuT-UmIOO9ZiqUMAsfs-115" target="qvuT-UmIOO9ZiqUMAsfs-119">
          <mxGeometry relative="1" as="geometry" />
        </mxCell>
        <mxCell id="qvuT-UmIOO9ZiqUMAsfs-115" value="jp" style="ellipse;whiteSpace=wrap;html=1;" vertex="1" parent="1">
          <mxGeometry x="232" y="-714" width="101.5" height="57" as="geometry" />
        </mxCell>
        <mxCell id="qvuT-UmIOO9ZiqUMAsfs-148" style="edgeStyle=none;curved=1;rounded=0;orthogonalLoop=1;jettySize=auto;html=1;exitX=0.5;exitY=1;exitDx=0;exitDy=0;entryX=0.5;entryY=0;entryDx=0;entryDy=0;fontSize=12;startSize=8;endSize=8;" edge="1" parent="1" source="qvuT-UmIOO9ZiqUMAsfs-116" target="qvuT-UmIOO9ZiqUMAsfs-139">
          <mxGeometry relative="1" as="geometry" />
        </mxCell>
        <mxCell id="qvuT-UmIOO9ZiqUMAsfs-116" value="no" style="ellipse;whiteSpace=wrap;html=1;" vertex="1" parent="1">
          <mxGeometry x="941" y="-714" width="101.5" height="57" as="geometry" />
        </mxCell>
        <mxCell id="qvuT-UmIOO9ZiqUMAsfs-161" style="edgeStyle=none;curved=1;rounded=0;orthogonalLoop=1;jettySize=auto;html=1;exitX=0.5;exitY=1;exitDx=0;exitDy=0;entryX=0.5;entryY=0;entryDx=0;entryDy=0;fontSize=12;startSize=8;endSize=8;" edge="1" parent="1" source="qvuT-UmIOO9ZiqUMAsfs-117" target="qvuT-UmIOO9ZiqUMAsfs-149">
          <mxGeometry relative="1" as="geometry" />
        </mxCell>
        <mxCell id="qvuT-UmIOO9ZiqUMAsfs-117" value="es" style="ellipse;whiteSpace=wrap;html=1;" vertex="1" parent="1">
          <mxGeometry x="1439.5" y="-706" width="101.5" height="57" as="geometry" />
        </mxCell>
        <mxCell id="qvuT-UmIOO9ZiqUMAsfs-135" style="edgeStyle=none;curved=1;rounded=0;orthogonalLoop=1;jettySize=auto;html=1;exitX=0;exitY=1;exitDx=0;exitDy=0;entryX=0.5;entryY=0;entryDx=0;entryDy=0;fontSize=12;startSize=8;endSize=8;" edge="1" parent="1" source="qvuT-UmIOO9ZiqUMAsfs-119" target="qvuT-UmIOO9ZiqUMAsfs-122">
          <mxGeometry relative="1" as="geometry" />
        </mxCell>
        <mxCell id="qvuT-UmIOO9ZiqUMAsfs-137" style="edgeStyle=none;curved=1;rounded=0;orthogonalLoop=1;jettySize=auto;html=1;exitX=0.5;exitY=1;exitDx=0;exitDy=0;entryX=0.5;entryY=0;entryDx=0;entryDy=0;fontSize=12;startSize=8;endSize=8;" edge="1" parent="1" source="qvuT-UmIOO9ZiqUMAsfs-119" target="qvuT-UmIOO9ZiqUMAsfs-127">
          <mxGeometry relative="1" as="geometry" />
        </mxCell>
        <mxCell id="qvuT-UmIOO9ZiqUMAsfs-138" style="edgeStyle=none;curved=1;rounded=0;orthogonalLoop=1;jettySize=auto;html=1;exitX=0.5;exitY=1;exitDx=0;exitDy=0;entryX=0.5;entryY=0;entryDx=0;entryDy=0;fontSize=12;startSize=8;endSize=8;" edge="1" parent="1" source="qvuT-UmIOO9ZiqUMAsfs-119" target="qvuT-UmIOO9ZiqUMAsfs-132">
          <mxGeometry relative="1" as="geometry" />
        </mxCell>
        <mxCell id="qvuT-UmIOO9ZiqUMAsfs-119" value="chiba" style="ellipse;whiteSpace=wrap;html=1;" vertex="1" parent="1">
          <mxGeometry x="311.75" y="-534" width="101.5" height="57" as="geometry" />
        </mxCell>
        <mxCell id="qvuT-UmIOO9ZiqUMAsfs-120" value="tokio" style="rounded=0;whiteSpace=wrap;html=1;" vertex="1" parent="1">
          <mxGeometry x="-197" y="-196" width="120" height="60" as="geometry" />
        </mxCell>
        <mxCell id="qvuT-UmIOO9ZiqUMAsfs-121" value="kyoto" style="rounded=0;whiteSpace=wrap;html=1;" vertex="1" parent="1">
          <mxGeometry x="-48" y="-199" width="120" height="60" as="geometry" />
        </mxCell>
        <mxCell id="qvuT-UmIOO9ZiqUMAsfs-122" value="www" style="rounded=0;whiteSpace=wrap;html=1;" vertex="1" parent="1">
          <mxGeometry x="92.5" y="-199" width="120" height="60" as="geometry" />
        </mxCell>
        <mxCell id="qvuT-UmIOO9ZiqUMAsfs-124" style="edgeStyle=none;curved=1;rounded=0;orthogonalLoop=1;jettySize=auto;html=1;entryX=0.619;entryY=-0.015;entryDx=0;entryDy=0;entryPerimeter=0;fontSize=12;startSize=8;endSize=8;exitX=0;exitY=1;exitDx=0;exitDy=0;" edge="1" parent="1" source="qvuT-UmIOO9ZiqUMAsfs-115" target="qvuT-UmIOO9ZiqUMAsfs-120">
          <mxGeometry relative="1" as="geometry">
            <mxPoint x="11" y="-458" as="sourcePoint" />
          </mxGeometry>
        </mxCell>
        <mxCell id="qvuT-UmIOO9ZiqUMAsfs-127" value="nob" style="rounded=0;whiteSpace=wrap;html=1;" vertex="1" parent="1">
          <mxGeometry x="365.5" y="-199" width="120" height="60" as="geometry" />
        </mxCell>
        <mxCell id="qvuT-UmIOO9ZiqUMAsfs-128" value="mail" style="rounded=0;whiteSpace=wrap;html=1;" vertex="1" parent="1">
          <mxGeometry x="229" y="-199" width="120" height="60" as="geometry" />
        </mxCell>
        <mxCell id="qvuT-UmIOO9ZiqUMAsfs-132" value="soc" style="rounded=0;whiteSpace=wrap;html=1;" vertex="1" parent="1">
          <mxGeometry x="507" y="-205" width="120" height="60" as="geometry" />
        </mxCell>
        <mxCell id="qvuT-UmIOO9ZiqUMAsfs-136" style="edgeStyle=none;curved=1;rounded=0;orthogonalLoop=1;jettySize=auto;html=1;exitX=0.5;exitY=1;exitDx=0;exitDy=0;entryX=0.402;entryY=0.086;entryDx=0;entryDy=0;entryPerimeter=0;fontSize=12;startSize=8;endSize=8;" edge="1" parent="1" source="qvuT-UmIOO9ZiqUMAsfs-119" target="qvuT-UmIOO9ZiqUMAsfs-128">
          <mxGeometry relative="1" as="geometry" />
        </mxCell>
        <mxCell id="qvuT-UmIOO9ZiqUMAsfs-144" style="edgeStyle=none;curved=1;rounded=0;orthogonalLoop=1;jettySize=auto;html=1;exitX=0.5;exitY=1;exitDx=0;exitDy=0;entryX=0.5;entryY=0;entryDx=0;entryDy=0;fontSize=12;startSize=8;endSize=8;" edge="1" parent="1" source="qvuT-UmIOO9ZiqUMAsfs-139" target="qvuT-UmIOO9ZiqUMAsfs-140">
          <mxGeometry relative="1" as="geometry" />
        </mxCell>
        <mxCell id="qvuT-UmIOO9ZiqUMAsfs-147" style="edgeStyle=none;curved=1;rounded=0;orthogonalLoop=1;jettySize=auto;html=1;exitX=0.5;exitY=1;exitDx=0;exitDy=0;entryX=0.5;entryY=0;entryDx=0;entryDy=0;fontSize=12;startSize=8;endSize=8;" edge="1" parent="1" source="qvuT-UmIOO9ZiqUMAsfs-139" target="qvuT-UmIOO9ZiqUMAsfs-143">
          <mxGeometry relative="1" as="geometry" />
        </mxCell>
        <mxCell id="qvuT-UmIOO9ZiqUMAsfs-139" value="norunt" style="ellipse;whiteSpace=wrap;html=1;" vertex="1" parent="1">
          <mxGeometry x="941" y="-534" width="101.5" height="57" as="geometry" />
        </mxCell>
        <mxCell id="qvuT-UmIOO9ZiqUMAsfs-140" value="ict" style="rounded=0;whiteSpace=wrap;html=1;" vertex="1" parent="1">
          <mxGeometry x="710" y="-199" width="120" height="60" as="geometry" />
        </mxCell>
        <mxCell id="qvuT-UmIOO9ZiqUMAsfs-141" value="ht" style="rounded=0;whiteSpace=wrap;html=1;" vertex="1" parent="1">
          <mxGeometry x="848" y="-199" width="120" height="60" as="geometry" />
        </mxCell>
        <mxCell id="qvuT-UmIOO9ZiqUMAsfs-142" value="mail" style="rounded=0;whiteSpace=wrap;html=1;" vertex="1" parent="1">
          <mxGeometry x="986" y="-202" width="120" height="60" as="geometry" />
        </mxCell>
        <mxCell id="qvuT-UmIOO9ZiqUMAsfs-143" value="www" style="rounded=0;whiteSpace=wrap;html=1;" vertex="1" parent="1">
          <mxGeometry x="1124" y="-202" width="120" height="60" as="geometry" />
        </mxCell>
        <mxCell id="qvuT-UmIOO9ZiqUMAsfs-145" style="edgeStyle=none;curved=1;rounded=0;orthogonalLoop=1;jettySize=auto;html=1;entryX=0.392;entryY=-0.021;entryDx=0;entryDy=0;entryPerimeter=0;fontSize=12;startSize=8;endSize=8;exitX=0.5;exitY=1;exitDx=0;exitDy=0;" edge="1" parent="1" source="qvuT-UmIOO9ZiqUMAsfs-139" target="qvuT-UmIOO9ZiqUMAsfs-141">
          <mxGeometry relative="1" as="geometry">
            <mxPoint x="986" y="-390" as="sourcePoint" />
          </mxGeometry>
        </mxCell>
        <mxCell id="qvuT-UmIOO9ZiqUMAsfs-146" style="edgeStyle=none;curved=1;rounded=0;orthogonalLoop=1;jettySize=auto;html=1;exitX=0.5;exitY=1;exitDx=0;exitDy=0;entryX=0.419;entryY=0.008;entryDx=0;entryDy=0;entryPerimeter=0;fontSize=12;startSize=8;endSize=8;" edge="1" parent="1" source="qvuT-UmIOO9ZiqUMAsfs-139" target="qvuT-UmIOO9ZiqUMAsfs-142">
          <mxGeometry relative="1" as="geometry" />
        </mxCell>
        <mxCell id="qvuT-UmIOO9ZiqUMAsfs-149" value="us" style="rounded=0;whiteSpace=wrap;html=1;" vertex="1" parent="1">
          <mxGeometry x="1308" y="-202" width="120" height="60" as="geometry" />
        </mxCell>
        <mxCell id="qvuT-UmIOO9ZiqUMAsfs-150" value="imse" style="rounded=0;whiteSpace=wrap;html=1;" vertex="1" parent="1">
          <mxGeometry x="1700" y="-199" width="120" height="60" as="geometry" />
        </mxCell>
        <mxCell id="qvuT-UmIOO9ZiqUMAsfs-151" value="www" style="rounded=0;whiteSpace=wrap;html=1;" vertex="1" parent="1">
          <mxGeometry x="1571" y="-196" width="120" height="60" as="geometry" />
        </mxCell>
        <mxCell id="qvuT-UmIOO9ZiqUMAsfs-152" value="mail" style="rounded=0;whiteSpace=wrap;html=1;" vertex="1" parent="1">
          <mxGeometry x="1439.5" y="-199" width="120" height="60" as="geometry" />
        </mxCell>
        <mxCell id="qvuT-UmIOO9ZiqUMAsfs-158" style="edgeStyle=none;curved=1;rounded=0;orthogonalLoop=1;jettySize=auto;html=1;exitX=1;exitY=1;exitDx=0;exitDy=0;fontSize=12;startSize=8;endSize=8;" edge="1" parent="1" source="qvuT-UmIOO9ZiqUMAsfs-153" target="qvuT-UmIOO9ZiqUMAsfs-150">
          <mxGeometry relative="1" as="geometry" />
        </mxCell>
        <mxCell id="qvuT-UmIOO9ZiqUMAsfs-159" style="edgeStyle=none;curved=1;rounded=0;orthogonalLoop=1;jettySize=auto;html=1;exitX=0.5;exitY=1;exitDx=0;exitDy=0;entryX=0.5;entryY=0;entryDx=0;entryDy=0;fontSize=12;startSize=8;endSize=8;" edge="1" parent="1" source="qvuT-UmIOO9ZiqUMAsfs-153" target="qvuT-UmIOO9ZiqUMAsfs-151">
          <mxGeometry relative="1" as="geometry" />
        </mxCell>
        <mxCell id="qvuT-UmIOO9ZiqUMAsfs-160" style="edgeStyle=none;curved=1;rounded=0;orthogonalLoop=1;jettySize=auto;html=1;exitX=0;exitY=1;exitDx=0;exitDy=0;fontSize=12;startSize=8;endSize=8;" edge="1" parent="1" source="qvuT-UmIOO9ZiqUMAsfs-153" target="qvuT-UmIOO9ZiqUMAsfs-152">
          <mxGeometry relative="1" as="geometry" />
        </mxCell>
        <mxCell id="qvuT-UmIOO9ZiqUMAsfs-153" value="onm" style="ellipse;whiteSpace=wrap;html=1;" vertex="1" parent="1">
          <mxGeometry x="1551" y="-550" width="101.5" height="57" as="geometry" />
        </mxCell>
        <mxCell id="qvuT-UmIOO9ZiqUMAsfs-157" style="edgeStyle=none;curved=1;rounded=0;orthogonalLoop=1;jettySize=auto;html=1;exitX=1;exitY=1;exitDx=0;exitDy=0;entryX=0.6;entryY=0.034;entryDx=0;entryDy=0;entryPerimeter=0;fontSize=12;startSize=8;endSize=8;" edge="1" parent="1" source="qvuT-UmIOO9ZiqUMAsfs-117" target="qvuT-UmIOO9ZiqUMAsfs-153">
          <mxGeometry relative="1" as="geometry" />
        </mxCell>
        <mxCell id="qvuT-UmIOO9ZiqUMAsfs-162" value="" style="endArrow=none;html=1;rounded=0;fontSize=12;startSize=8;endSize=8;curved=1;" edge="1" parent="1">
          <mxGeometry width="50" height="50" relative="1" as="geometry">
            <mxPoint x="-100" y="-924" as="sourcePoint" />
            <mxPoint x="1729" y="-924" as="targetPoint" />
          </mxGeometry>
        </mxCell>
        <mxCell id="qvuT-UmIOO9ZiqUMAsfs-163" value="" style="endArrow=none;html=1;rounded=0;fontSize=12;startSize=8;endSize=8;curved=1;" edge="1" parent="1">
          <mxGeometry width="50" height="50" relative="1" as="geometry">
            <mxPoint x="-99" y="-607" as="sourcePoint" />
            <mxPoint x="1889" y="-598" as="targetPoint" />
          </mxGeometry>
        </mxCell>
        <mxCell id="qvuT-UmIOO9ZiqUMAsfs-164" value="" style="endArrow=none;html=1;rounded=0;fontSize=12;startSize=8;endSize=8;curved=1;" edge="1" parent="1">
          <mxGeometry width="50" height="50" relative="1" as="geometry">
            <mxPoint x="-113" y="-368" as="sourcePoint" />
            <mxPoint x="1855" y="-363" as="targetPoint" />
          </mxGeometry>
        </mxCell>
        <mxCell id="qvuT-UmIOO9ZiqUMAsfs-166" value="RAIZ" style="text;strokeColor=none;fillColor=none;html=1;align=center;verticalAlign=middle;whiteSpace=wrap;rounded=0;fontSize=16;strokeWidth=21;" vertex="1" parent="1">
          <mxGeometry x="-296" y="-1065" width="234" height="96" as="geometry" />
        </mxCell>
        <mxCell id="qvuT-UmIOO9ZiqUMAsfs-167" value="TLD" style="text;html=1;align=center;verticalAlign=middle;resizable=0;points=[];autosize=1;strokeColor=none;fillColor=none;fontSize=16;" vertex="1" parent="1">
          <mxGeometry x="-203" y="-778" width="48" height="31" as="geometry" />
        </mxCell>
        <mxCell id="qvuT-UmIOO9ZiqUMAsfs-168" value="AUT 1" style="text;html=1;align=center;verticalAlign=middle;resizable=0;points=[];autosize=1;strokeColor=none;fillColor=none;fontSize=16;" vertex="1" parent="1">
          <mxGeometry x="-218" y="-486.5" width="63" height="31" as="geometry" />
        </mxCell>
        <mxCell id="qvuT-UmIOO9ZiqUMAsfs-169" value="HOJAS" style="text;html=1;align=center;verticalAlign=middle;resizable=0;points=[];autosize=1;strokeColor=none;fillColor=none;fontSize=16;" vertex="1" parent="1">
          <mxGeometry x="-234.5" y="-312.5" width="71" height="31" as="geometry" />
        </mxCell>
        <mxCell id="qvuT-UmIOO9ZiqUMAsfs-175" style="edgeStyle=none;curved=1;rounded=0;orthogonalLoop=1;jettySize=auto;html=1;exitX=0;exitY=1;exitDx=0;exitDy=0;fontSize=12;startSize=8;endSize=8;" edge="1" parent="1" source="qvuT-UmIOO9ZiqUMAsfs-170" target="qvuT-UmIOO9ZiqUMAsfs-171">
          <mxGeometry relative="1" as="geometry" />
        </mxCell>
        <mxCell id="qvuT-UmIOO9ZiqUMAsfs-178" style="edgeStyle=none;curved=1;rounded=0;orthogonalLoop=1;jettySize=auto;html=1;exitX=1;exitY=0;exitDx=0;exitDy=0;fontSize=12;startSize=8;endSize=8;" edge="1" parent="1" source="qvuT-UmIOO9ZiqUMAsfs-170">
          <mxGeometry relative="1" as="geometry">
            <mxPoint x="584.9230769230767" y="840" as="targetPoint" />
          </mxGeometry>
        </mxCell>
        <mxCell id="qvuT-UmIOO9ZiqUMAsfs-193" style="edgeStyle=none;curved=1;rounded=0;orthogonalLoop=1;jettySize=auto;html=1;exitX=0.5;exitY=1;exitDx=0;exitDy=0;fontSize=12;startSize=8;endSize=8;" edge="1" parent="1" source="qvuT-UmIOO9ZiqUMAsfs-170" target="qvuT-UmIOO9ZiqUMAsfs-190">
          <mxGeometry relative="1" as="geometry" />
        </mxCell>
        <mxCell id="qvuT-UmIOO9ZiqUMAsfs-194" style="edgeStyle=none;curved=1;rounded=0;orthogonalLoop=1;jettySize=auto;html=1;exitX=0.5;exitY=1;exitDx=0;exitDy=0;fontSize=12;startSize=8;endSize=8;" edge="1" parent="1" source="qvuT-UmIOO9ZiqUMAsfs-170" target="qvuT-UmIOO9ZiqUMAsfs-191">
          <mxGeometry relative="1" as="geometry" />
        </mxCell>
        <mxCell id="qvuT-UmIOO9ZiqUMAsfs-195" style="edgeStyle=none;curved=1;rounded=0;orthogonalLoop=1;jettySize=auto;html=1;fontSize=12;startSize=8;endSize=8;" edge="1" parent="1" source="qvuT-UmIOO9ZiqUMAsfs-170" target="qvuT-UmIOO9ZiqUMAsfs-192">
          <mxGeometry relative="1" as="geometry" />
        </mxCell>
        <mxCell id="qvuT-UmIOO9ZiqUMAsfs-170" value="jp" style="ellipse;whiteSpace=wrap;html=1;" vertex="1" parent="1">
          <mxGeometry x="267" y="1051" width="120" height="80" as="geometry" />
        </mxCell>
        <mxCell id="qvuT-UmIOO9ZiqUMAsfs-176" style="edgeStyle=none;curved=1;rounded=0;orthogonalLoop=1;jettySize=auto;html=1;exitX=0;exitY=1;exitDx=0;exitDy=0;fontSize=12;startSize=8;endSize=8;" edge="1" parent="1" source="qvuT-UmIOO9ZiqUMAsfs-171" target="qvuT-UmIOO9ZiqUMAsfs-173">
          <mxGeometry relative="1" as="geometry" />
        </mxCell>
        <mxCell id="qvuT-UmIOO9ZiqUMAsfs-171" value="chiba" style="ellipse;whiteSpace=wrap;html=1;" vertex="1" parent="1">
          <mxGeometry x="160" y="1150" width="120" height="80" as="geometry" />
        </mxCell>
        <mxCell id="qvuT-UmIOO9ZiqUMAsfs-177" style="edgeStyle=none;curved=1;rounded=0;orthogonalLoop=1;jettySize=auto;html=1;exitX=0.5;exitY=1;exitDx=0;exitDy=0;fontSize=12;startSize=8;endSize=8;entryX=0.5;entryY=0;entryDx=0;entryDy=0;" edge="1" parent="1" source="qvuT-UmIOO9ZiqUMAsfs-173" target="qvuT-UmIOO9ZiqUMAsfs-174">
          <mxGeometry relative="1" as="geometry">
            <mxPoint x="146.46153846153834" y="1401.5384615384614" as="targetPoint" />
          </mxGeometry>
        </mxCell>
        <mxCell id="qvuT-UmIOO9ZiqUMAsfs-173" value="rob" style="ellipse;whiteSpace=wrap;html=1;" vertex="1" parent="1">
          <mxGeometry x="98" y="1263" width="120" height="80" as="geometry" />
        </mxCell>
        <mxCell id="qvuT-UmIOO9ZiqUMAsfs-174" value="print" style="rounded=0;whiteSpace=wrap;html=1;" vertex="1" parent="1">
          <mxGeometry x="-27.5" y="1431.5" width="120" height="46" as="geometry" />
        </mxCell>
        <mxCell id="qvuT-UmIOO9ZiqUMAsfs-179" value="" style="endArrow=none;html=1;rounded=0;fontSize=12;startSize=8;endSize=8;curved=1;" edge="1" parent="1">
          <mxGeometry width="50" height="50" relative="1" as="geometry">
            <mxPoint x="-93" y="1042" as="sourcePoint" />
            <mxPoint x="462" y="1042" as="targetPoint" />
          </mxGeometry>
        </mxCell>
        <mxCell id="qvuT-UmIOO9ZiqUMAsfs-180" value="" style="endArrow=none;html=1;rounded=0;fontSize=12;startSize=8;endSize=8;curved=1;" edge="1" parent="1">
          <mxGeometry width="50" height="50" relative="1" as="geometry">
            <mxPoint x="-43" y="1248" as="sourcePoint" />
            <mxPoint x="655.5" y="1252" as="targetPoint" />
          </mxGeometry>
        </mxCell>
        <mxCell id="qvuT-UmIOO9ZiqUMAsfs-182" value="Text" style="edgeLabel;html=1;align=center;verticalAlign=middle;resizable=0;points=[];fontSize=12;" vertex="1" connectable="0" parent="qvuT-UmIOO9ZiqUMAsfs-180">
          <mxGeometry x="-0.0526" y="-5" relative="1" as="geometry">
            <mxPoint as="offset" />
          </mxGeometry>
        </mxCell>
        <mxCell id="qvuT-UmIOO9ZiqUMAsfs-181" value="" style="endArrow=none;html=1;rounded=0;fontSize=12;startSize=8;endSize=8;curved=1;" edge="1" parent="1">
          <mxGeometry width="50" height="50" relative="1" as="geometry">
            <mxPoint x="-81" y="1138" as="sourcePoint" />
            <mxPoint x="617.5" y="1142" as="targetPoint" />
          </mxGeometry>
        </mxCell>
        <mxCell id="qvuT-UmIOO9ZiqUMAsfs-183" value="" style="endArrow=none;html=1;rounded=0;fontSize=12;startSize=8;endSize=8;curved=1;" edge="1" parent="1" target="qvuT-UmIOO9ZiqUMAsfs-185">
          <mxGeometry width="50" height="50" relative="1" as="geometry">
            <mxPoint x="-108" y="1378" as="sourcePoint" />
            <mxPoint x="590.5" y="1382" as="targetPoint" />
          </mxGeometry>
        </mxCell>
        <mxCell id="qvuT-UmIOO9ZiqUMAsfs-184" value="Text" style="edgeLabel;html=1;align=center;verticalAlign=middle;resizable=0;points=[];fontSize=12;" vertex="1" connectable="0" parent="qvuT-UmIOO9ZiqUMAsfs-183">
          <mxGeometry x="-0.0526" y="-5" relative="1" as="geometry">
            <mxPoint as="offset" />
          </mxGeometry>
        </mxCell>
        <mxCell id="qvuT-UmIOO9ZiqUMAsfs-185" value="Text" style="text;html=1;align=center;verticalAlign=middle;whiteSpace=wrap;rounded=0;" vertex="1" parent="1">
          <mxGeometry x="560.5000000000002" y="1367" width="60" height="30" as="geometry" />
        </mxCell>
        <mxCell id="qvuT-UmIOO9ZiqUMAsfs-186" value="HOJA" style="text;html=1;align=center;verticalAlign=middle;resizable=0;points=[];autosize=1;strokeColor=none;fillColor=none;fontSize=16;" vertex="1" parent="1">
          <mxGeometry x="-140.5" y="1386.5" width="61" height="31" as="geometry" />
        </mxCell>
        <mxCell id="qvuT-UmIOO9ZiqUMAsfs-187" value="AUT1" style="text;html=1;align=center;verticalAlign=middle;resizable=0;points=[];autosize=1;strokeColor=none;fillColor=none;fontSize=16;" vertex="1" parent="1">
          <mxGeometry x="-112" y="1172" width="59" height="31" as="geometry" />
        </mxCell>
        <mxCell id="qvuT-UmIOO9ZiqUMAsfs-188" value="TLD" style="text;html=1;align=center;verticalAlign=middle;resizable=0;points=[];autosize=1;strokeColor=none;fillColor=none;fontSize=16;" vertex="1" parent="1">
          <mxGeometry x="-57" y="1068" width="48" height="31" as="geometry" />
        </mxCell>
        <mxCell id="qvuT-UmIOO9ZiqUMAsfs-189" value="AUT2" style="text;html=1;align=center;verticalAlign=middle;resizable=0;points=[];autosize=1;strokeColor=none;fillColor=none;fontSize=16;" vertex="1" parent="1">
          <mxGeometry x="-56.5" y="1281.5" width="59" height="31" as="geometry" />
        </mxCell>
        <mxCell id="qvuT-UmIOO9ZiqUMAsfs-190" value="mail" style="rounded=0;whiteSpace=wrap;html=1;" vertex="1" parent="1">
          <mxGeometry x="181" y="1424.5" width="120" height="60" as="geometry" />
        </mxCell>
        <mxCell id="qvuT-UmIOO9ZiqUMAsfs-191" value="soc" style="rounded=0;whiteSpace=wrap;html=1;" vertex="1" parent="1">
          <mxGeometry x="359" y="1424.5" width="120" height="60" as="geometry" />
        </mxCell>
        <mxCell id="qvuT-UmIOO9ZiqUMAsfs-192" value="www" style="rounded=0;whiteSpace=wrap;html=1;" vertex="1" parent="1">
          <mxGeometry x="527" y="1423" width="120" height="60" as="geometry" />
        </mxCell>
      </root>
    </mxGraphModel>
  </diagram>
</mxfile>
